<svg
  xmlns="http://www.w3.org/2000/svg"
  width="800"
  height="800"
  version="1.1"
  viewBox="0 0 48 48"
  xmlSpace="preserve"
>
  <g
    fillOpacity="1"
    fillRule="evenodd"
    strokeLinecap="round"
    strokeLinejoin="round"
    strokeMiterlimit="4.1"
    transform="translate(-98 -161)"
  >
    <path
      fill="#82ca9d"
      d="M115.214 185.247a1 1 0 00-.605.469l-4.789 8.499a1 1 0 101.738.992l4.789-8.499a1 1 0 00-1.133-1.46z"
      color="#000"
    ></path>
    <path
      fill="#82ca9d"
      d="M117.575 184.63a1 1 0 00-1.008 1.727l6.867 3.75a1 1 0 001.006-1.729z"
      color="#000"
    ></path>
    <path
      fill="#82ca9d"
      d="M131.425 180.404a1 1 0 00-1.372.348l-5.097 7.778a1 1 0 101.718 1.023l5.098-7.778a1 1 0 00-.347-1.37z"
      color="#000"
    ></path>
    <path
      d="M103 165.023a1 1 0 00-1 1V204a1 1 0 001 1h15a1 1 0 000-2h-14v-36.977a1 1 0 00-1-1zM122.166 203a1 1 0 100 2H141a1 1 0 000-2z"
      fill="#EAEAEA"
      color="#000"
    ></path>
    <path
      fill="#168118"
      strokeWidth="2"
      d="M112 196a2 2 0 01-2 2 2 2 0 01-2-2 2 2 0 012-2 2 2 0 012 2z"
      color="#000"
    ></path>
    <path
      fill="#168118"
      strokeWidth="2"
      d="M118 185a2 2 0 01-2 2 2 2 0 01-2-2 2 2 0 012-2 2 2 0 012 2z"
      color="#000"
    ></path>
    <path
      fill="#168118"
      strokeWidth="2"
      d="M126.917 189.55a2 2 0 01-2 2 2 2 0 01-2-2 2 2 0 012-2 2 2 0 012 2z"
      color="#000"
    ></path>
    <path
      fill="#f2a50c"
      stroke="none"
      strokeOpacity="1"
      strokeWidth="2"
      d="M141 174a8 8 0 11-16 0 8 8 0 0116 0z"
    ></path>
    <path
      fill="#f7c63d"
      stroke="none"
      strokeOpacity="1"
      strokeWidth="2"
      d="M131.852 166.082a8.001 8.001 0 00-1.561 15.445c3.871-.56 6.848-3.89 6.848-7.916a8.005 8.005 0 00-5.287-7.529z"
    ></path>
    <path
      fill="#168118"
      stroke="none"
      strokeOpacity="1"
      strokeWidth="1"
      d="M133 167.738a1.006.994 0 00-1.006.996v.864c-1.09.394-1.892 1.406-1.892 2.609 0 1.551 1.331 2.787 2.898 2.787.525 0 .889.37.889.799 0 .43-.364.799-.889.799s-.887-.37-.887-.799a1.006.994 0 00-1.006-.994 1.006.994 0 00-1.005.994c0 1.203.801 2.215 1.892 2.61v.863a1.006.994 0 001.006.996 1.006.994 0 001.006-.996v-.864c1.09-.394 1.894-1.406 1.894-2.609 0-1.551-1.333-2.787-2.9-2.787-.525 0-.887-.37-.887-.799 0-.43.362-.799.887-.799s.889.37.889.799a1.006.994 0 001.006.994 1.006.994 0 001.005-.994c0-1.203-.803-2.215-1.894-2.61v-.863a1.006.994 0 00-1.006-.996z"
      color="#000"
    ></path>
    <path
      fill="#f44336"
      strokeWidth="2"
      d="M127 200h5v-5h-5z"
      color="#000"
    ></path>
    <path
      fill="#EAEAEA"
      d="M136 198a1 1 0 00-1 1 1 1 0 001 1h5a1 1 0 001-1 1 1 0 00-1-1z"
      color="#000"
    ></path>
    <path
      fill="#EAEAEA"
      d="M136 195a1 1 0 00-1 1 1 1 0 001 1h3a1 1 0 001-1 1 1 0 00-1-1z"
      color="#000"
    ></path>
    <path
      fill="#EAEAEA"
      d="M106.943 168a1 1 0 00-1 1 1 1 0 001 1H115a1 1 0 001-1 1 1 0 00-1-1z"
      color="#000"
    ></path>
    <path
      fill="#EAEAEA"
      d="M107.088 165a1 1 0 00-1 1 1 1 0 001 1h4.66a1 1 0 001-1 1 1 0 00-1-1z"
      color="#000"
    ></path>
    <path
      fill="#EAEAEA"
      d="M107.088 171a1 1 0 00-1 1 1 1 0 001 1h10.875a1 1 0 001-1 1 1 0 00-1-1z"
      color="#000"
    ></path>
  </g>
</svg>
